[Header]
FileType HTR
DataType HTRS
FileVersion 1
NumSegments 64
NumFrames 4
DataFrameRate 30
EulerRotationOrder ZYX
CalibrationUnits mm
RotationUnits Degrees
GlobalAxisofGravity Y
BoneLengthAxis Y
ScaleFactor 1.0
[SegmentNames&Hierarchy]
Hips	GLOBAL
Spine	Hips
Spine1	Spine
Spine2	Spine1
Neck	Spine2
Head	Neck
LeftEye	Head
RightEye	Head
LeftShoulder	Spine2
LeftArm	LeftShoulder
LeftForeArm	LeftArm
LeftHand	LeftForeArm
LeftHandThumb1	LeftHand
LeftHandThumb2	LeftHandThumb1
LeftHandThumb3	LeftHandThumb2
LeftHandThumb4	LeftHandThumb3
LeftHandIndex1	LeftHand
LeftHandIndex2	LeftHandIndex1
LeftHandIndex3	LeftHandIndex2
LeftHandIndex4	LeftHandIndex3
LeftHandMiddle1	LeftHand
LeftHandMiddle2	LeftHandMiddle1
LeftHandMiddle3	LeftHandMiddle2
LeftHandMiddle4	LeftHandMiddle3
LeftHandRing1	LeftHand
LeftHandRing2	LeftHandRing1
LeftHandRing3	LeftHandRing2
LeftHandRing4	LeftHandRing3
LeftHandPinky1	LeftHand
LeftHandPinky2	LeftHandPinky1
LeftHandPinky3	LeftHandPinky2
LeftHandPinky4	LeftHandPinky3
RightShoulder	Spine2
RightArm	RightShoulder
RightForeArm	RightArm
RightHand	RightForeArm
RightHandPinky1	RightHand
RightHandPinky2	RightHandPinky1
RightHandPinky3	RightHandPinky2
RightHandPinky4	RightHandPinky3
RightHandRing1	RightHand
RightHandRing2	RightHandRing1
RightHandRing3	RightHandRing2
RightHandRing4	RightHandRing3
RightHandMiddle1	RightHand
RightHandMiddle2	RightHandMiddle1
RightHandMiddle3	RightHandMiddle2
RightHandMiddle4	RightHandMiddle3
RightHandIndex1	RightHand
RightHandIndex2	RightHandIndex1
RightHandIndex3	RightHandIndex2
RightHandIndex4	RightHandIndex3
RightHandThumb1	RightHand
RightHandThumb2	RightHandThumb1
RightHandThumb3	RightHandThumb2
RightHandThumb4	RightHandThumb3
LeftUpLeg	Hips
LeftLeg	LeftUpLeg
LeftFoot	LeftLeg
LeftToeBase	LeftFoot
RightUpLeg	Hips
RightLeg	RightUpLeg
RightFoot	RightLeg
RightToeBase	RightFoot
[BasePosition]
Hips	0	0	0	0	0	0	1
Spine	0	0	0	0	0	0	1
Spine1	0	0	0	0	0	0	1
Spine2	0	0	0	0	0	0	1
Neck	0	0	0	0	0	0	1
Head	0	0	0	0	0	0	1
LeftEye	0	0	0	0	0	0	1
RightEye	0	0	0	0	0	0	1
LeftShoulder	0	0	0	0	0	0	1
LeftArm	0	0	0	0	0	0	1
LeftForeArm	0	0	0	0	0	0	1
LeftHand	0	0	0	0	0	0	1
LeftHandThumb1	0	0	0	0	0	0	1
LeftHandThumb2	0	0	0	0	0	0	1
LeftHandThumb3	0	0	0	0	0	0	1
LeftHandThumb4	0	0	0	0	0	0	1
LeftHandIndex1	0	0	0	0	0	0	1
LeftHandIndex2	0	0	0	0	0	0	1
LeftHandIndex3	0	0	0	0	0	0	1
LeftHandIndex4	0	0	0	0	0	0	1
LeftHandMiddle1	0	0	0	0	0	0	1
LeftHandMiddle2	0	0	0	0	0	0	1
LeftHandMiddle3	0	0	0	0	0	0	1
LeftHandMiddle4	0	0	0	0	0	0	1
LeftHandRing1	0	0	0	0	0	0	1
LeftHandRing2	0	0	0	0	0	0	1
LeftHandRing3	0	0	0	0	0	0	1
LeftHandRing4	0	0	0	0	0	0	1
LeftHandPinky1	0	0	0	0	0	0	1
LeftHandPinky2	0	0	0	0	0	0	1
LeftHandPinky3	0	0	0	0	0	0	1
LeftHandPinky4	0	0	0	0	0	0	1
RightShoulder	0	0	0	0	0	0	1
RightArm	0	0	0	0	0	0	1
RightForeArm	0	0	0	0	0	0	1
RightHand	0	0	0	0	0	0	1
RightHandPinky1	0	0	0	0	0	0	1
RightHandPinky2	0	0	0	0	0	0	1
RightHandPinky3	0	0	0	0	0	0	1
RightHandPinky4	0	0	0	0	0	0	1
RightHandRing1	0	0	0	0	0	0	1
RightHandRing2	0	0	0	0	0	0	1
RightHandRing3	0	0	0	0	0	0	1
RightHandRing4	0	0	0	0	0	0	1
RightHandMiddle1	0	0	0	0	0	0	1
RightHandMiddle2	0	0	0	0	0	0	1
RightHandMiddle3	0	0	0	0	0	0	1
RightHandMiddle4	0	0	0	0	0	0	1
RightHandIndex1	0	0	0	0	0	0	1
RightHandIndex2	0	0	0	0	0	0	1
RightHandIndex3	0	0	0	0	0	0	1
RightHandIndex4	0	0	0	0	0	0	1
RightHandThumb1	0	0	0	0	0	0	1
RightHandThumb2	0	0	0	0	0	0	1
RightHandThumb3	0	0	0	0	0	0	1
RightHandThumb4	0	0	0	0	0	0	1
LeftUpLeg	0	0	0	0	0	0	1
LeftLeg	0	0	0	0	0	0	1
LeftFoot	0	0	0	0	0	0	1
LeftToeBase	0	0	0	0	0	0	1
RightUpLeg	0	0	0	0	0	0	1
RightLeg	0	0	0	0	0	0	1
RightFoot	0	0	0	0	0	0	1
RightToeBase	0	0	0	0	0	0	1
[Hips]
155	-16.53343773	950.0605469	546.2850342	-548.8435059	236.4147034	-177.2035828	1.0
156	-15.59069824	956.3111572	536.3805542	-550.1345215	235.5075989	-176.0761108	1.0
157	-14.34831142	962.5613403	528.4025269	-551.7002563	234.7427826	-174.5904694	1.0
158	-13.36536789	967.5601807	521.8922729	-553.1439209	234.3450012	-173.1299591	1.0
[Spine]
155	0	101.8159943	1.315000057	1.579953194	0.6663970947	-0.383723259	1.0
156	0	101.8159943	1.315000057	1.608624816	0.5055912137	-0.4179383218	1.0
157	0	101.8159943	1.315000057	1.64221549	0.5017441511	-0.507552743	1.0
158	0	101.8159943	1.315000057	1.64048934	0.5429205298	-0.6217190623	1.0
[Spine1]
155	0	100.8349991	-10.00800037	3.155943155	1.254374146	-0.8672501445	1.0
156	0	100.8349991	-10.00800037	3.21530962	0.8924700618	-0.7512913346	1.0
157	0	100.8349991	-10.00800037	3.283249617	0.8398410678	-0.6954559088	1.0
158	0	100.8349991	-10.00800037	3.280199528	0.8826693892	-0.6874141693	1.0
[Spine2]
155	0	91	-13.73399925	3.155941963	1.254367232	-0.8672502041	1.0
156	0	91	-13.73399925	3.215310335	0.8924597502	-0.751291275	1.0
157	0	91	-13.73399925	3.283249378	0.8398327827	-0.695456326	1.0
158	0	91	-13.73399925	3.280198574	0.8826580048	-0.6874140501	1.0
[Neck]
155	0	166.7169952	-25.16200066	15.49844837	6.297473431	-1.702589989	1.0
156	0	166.7169952	-25.16200066	15.59947777	6.321991444	-1.870036602	1.0
157	0	166.7169952	-25.16200066	15.72760677	6.298654556	-2.154731512	1.0
158	0	166.7169952	-25.16200066	15.78089905	6.327088356	-2.425121307	1.0
[Head]
155	0	96.17900085	16.84999847	-8.022819519	31.66762161	-5.690189838	1.0
156	0	96.17900085	16.84999847	-7.064496517	31.3451519	-5.520312309	1.0
157	0	96.17900085	16.84999847	-6.472178459	30.80136681	-5.627863407	1.0
158	0	96.17900085	16.84999847	-6.080539703	30.57909775	-5.786953449	1.0
[LeftEye]
155	30.6760006	64.09500122	92.83599854	0	0	0	1.0
156	30.6760006	64.09500122	92.83599854	0	0	0	1.0
157	30.6760006	64.09500122	92.83599854	0	0	0	1.0
158	30.6760006	64.09500122	92.83599854	0	0	0	1.0
[RightEye]
155	-30.6760006	64.09500122	92.83499908	0	0	0	1.0
156	-30.6760006	64.09500122	92.83499908	0	0	0	1.0
157	-30.6760006	64.09500122	92.83499908	0	0	0	1.0
158	-30.6760006	64.09500122	92.83499908	0	0	0	1.0
[LeftShoulder]
155	45.70400238	109.4599991	-26.28000069	-1.695386052	-18.45352745	7.384176731	1.0
156	45.70400238	109.4599991	-26.28000069	-1.427780032	-18.85201454	6.333689213	1.0
157	45.70400238	109.4599991	-26.28000069	-1.145696282	-19.58746719	5.234852314	1.0
158	45.70400238	109.4599991	-26.28000069	-0.9306156635	-19.67631912	4.470826626	1.0
[LeftArm]
155	105.923996	-5.24600029	-22.32099915	-50.37890244	16.44600296	-34.95483017	1.0
156	105.923996	-5.24600029	-22.32099915	-50.93458939	16.50831223	-35.18471909	1.0
157	105.923996	-5.24600029	-22.32099915	-50.85131454	16.20423698	-35.66212463	1.0
158	105.923996	-5.24600029	-22.32099915	-50.27644348	15.55669689	-36.11153412	1.0
[LeftForeArm]
155	278.414978	-0.0009999999311	0	-547.8942261	-61.88020706	544.5477295	1.0
156	278.414978	-0.0009999999311	0	-547.888916	-62.05597687	544.5522461	1.0
157	278.414978	-0.0009999999311	0	-547.7744751	-61.96014786	544.4534302	1.0
158	278.414978	-0.0009999999311	0	-547.619873	-61.78762054	544.3292236	1.0
[LeftHand]
155	283.2879944	0	0	7.387065887	4.016422749	4.480307579	1.0
156	283.2879944	0	0	7.383280754	3.842985868	4.155966759	1.0
157	283.2879944	0	0	7.405968666	3.85070014	3.893805265	1.0
158	283.2879944	0	0	7.902832985	3.861053467	3.89086175	1.0
[LeftHandThumb1]
155	24.6609993	-15.75	26.8239994	8.045081139	-13.67928219	-4.092494965	1.0
156	24.6609993	-15.75	26.8239994	8.149283409	-14.09826565	-4.130037785	1.0
157	24.6609993	-15.75	26.8239994	8.257216454	-14.3657608	-4.069477558	1.0
158	24.6609993	-15.75	26.8239994	8.370053291	-14.51842403	-3.937444687	1.0
[LeftHandThumb2]
155	32.29800034	-18.64699936	18.64699936	-0.188647598	35.588974	-43.39332581	1.0
156	32.29800034	-18.64699936	18.64699936	-0.5592591166	35.66741562	-44.53129578	1.0
157	32.29800034	-18.64699936	18.64699936	-0.7564760447	35.68351746	-45.20016098	1.0
158	32.29800034	-18.64699936	18.64699936	-0.8286105394	35.66035461	-45.52326584	1.0
[LeftHandThumb3]
155	26.52600098	-15.31499958	15.31499958	3.601811159e-06	-8.438974328e-05	-6.943767221e-05	1.0
156	26.52600098	-15.31499958	15.31499958	3.601811159e-06	-8.438974328e-05	-6.943767221e-05	1.0
157	26.52600098	-15.31499958	15.31499958	3.601811159e-06	-8.438974328e-05	-6.943767221e-05	1.0
158	26.52600098	-15.31499958	15.31499958	3.601811159e-06	-8.438974328e-05	-6.943767221e-05	1.0
[LeftHandThumb4]
155	19.54599953	-11.28499985	11.28499985	0	0	0	1.0
156	19.54599953	-11.28499985	11.28499985	0	0	0	1.0
157	19.54599953	-11.28499985	11.28499985	0	0	0	1.0
158	19.54599953	-11.28499985	11.28499985	0	0	0	1.0
[LeftHandIndex1]
155	91.09299469	-5.170999527	22.60099792	4.643098831	-1.898472905	-107.5947723	1.0
156	91.09299469	-5.170999527	22.60099792	4.83295393	-1.974407673	-109.5457993	1.0
157	91.09299469	-5.170999527	22.60099792	4.923446178	-2.007441521	-110.4616241	1.0
158	91.09299469	-5.170999527	22.60099792	4.939353943	-2.013080835	-110.6214981	1.0
[LeftHandIndex2]
155	36.76399994	0	0	-0.4555797875	-8.482958794	-93.84721375	1.0
156	36.76399994	0	0	-0.2302267849	-8.673213005	-95.9338913	1.0
157	36.76399994	0	0	-0.1228230596	-8.759516716	-96.90903473	1.0
158	36.76399994	0	0	-0.1040145531	-8.774391174	-97.07875824	1.0
[LeftHandIndex3]
155	28.83100128	0	0	-1.432096042e-06	3.907105395e-07	1.552835329e-06	1.0
156	28.83100128	0	0	-1.432096042e-06	3.907105395e-07	1.552835329e-06	1.0
157	28.83100128	0	0	-1.432096042e-06	3.907105395e-07	1.552835329e-06	1.0
158	28.83100128	0	0	-1.432096042e-06	3.907105395e-07	1.552835329e-06	1.0
[LeftHandIndex4]
155	23.92700005	0	0	0	0	0	1.0
156	23.92700005	0	0	0	0	0	1.0
157	23.92700005	0	0	0	0	0	1.0
158	23.92700005	0	0	0	0	0	1.0
[LeftHandMiddle1]
155	95.33399963	0	0	1.28974247	-7.87112093	-102.3169327	1.0
156	95.33399963	0	0	1.480576873	-8.01457119	-104.1426315	1.0
157	95.33399963	0	0	1.571431279	-8.079854965	-104.9986267	1.0
158	95.33399963	0	0	1.587341547	-8.091043472	-105.1479492	1.0
[LeftHandMiddle2]
155	36.98199844	0	0	1.048031569	-8.888728142	-93.72454834	1.0
156	36.98199844	0	0	1.232347012	-8.999156952	-95.49765015	1.0
157	36.98199844	0	0	1.319288731	-9.048879623	-96.32421875	1.0
158	36.98199844	0	0	1.334465027	-9.05741787	-96.46784973	1.0
[LeftHandMiddle3]
155	29.50900078	0	0	0	-3.180554719e-15	-7.951386796e-16	1.0
156	29.50900078	0	0	0	-3.180554719e-15	-7.951386796e-16	1.0
157	29.50900078	0	0	0	-3.180554719e-15	-7.951386796e-16	1.0
158	29.50900078	0	0	0	-3.180554719e-15	-7.951386796e-16	1.0
[LeftHandMiddle4]
155	28.3390007	0	0	0	0	0	1.0
156	28.3390007	0	0	0	0	0	1.0
157	28.3390007	0	0	0	0	0	1.0
158	28.3390007	0	0	0	0	0	1.0
[LeftHandRing1]
155	91.04499817	-0.4390000105	-18.65100098	-3.320380926	-10.49759579	-107.1275711	1.0
156	91.04499817	-0.4390000105	-18.65100098	-3.0910182	-10.69651222	-108.9405289	1.0
157	91.04499817	-0.4390000105	-18.65100098	-2.982375145	-10.7877636	-109.7901535	1.0
158	91.04499817	-0.4390000105	-18.65100098	-2.963339329	-10.80355835	-109.9383011	1.0
[LeftHandRing2]
155	31.54000092	0	0	7.103330135	-2.397333622	-85.62276459	1.0
156	31.54000092	0	0	7.217727661	-2.325601101	-87.18756866	1.0
157	31.54000092	0	0	7.270318985	-2.29129076	-87.91523743	1.0
158	31.54000092	0	0	7.279401302	-2.285246849	-88.04149628	1.0
[LeftHandRing3]
155	29.37700081	0	0	1.590277359e-15	3.180554719e-15	-7.951386796e-16	1.0
156	29.37700081	0	0	1.590277359e-15	3.180554719e-15	-7.951386796e-16	1.0
157	29.37700081	0	0	1.590277359e-15	3.180554719e-15	-7.951386796e-16	1.0
158	29.37700081	0	0	1.590277359e-15	3.180554719e-15	-7.951386796e-16	1.0
[LeftHandRing4]
155	26.47500038	0	0	0	0	0	1.0
156	26.47500038	0	0	0	0	0	1.0
157	26.47500038	0	0	0	0	0	1.0
158	26.47500038	0	0	0	0	0	1.0
[LeftHandPinky1]
155	80.77799988	-4.887000084	-38.06099701	-2.416816711	-14.67686844	-109.4165802	1.0
156	80.77799988	-4.887000084	-38.06099701	-2.142631531	-14.96883774	-111.3056564	1.0
157	80.77799988	-4.887000084	-38.06099701	-2.015034437	-15.10264969	-112.1838303	1.0
158	80.77799988	-4.887000084	-38.06099701	-1.995654106	-15.12484837	-112.3255997	1.0
[LeftHandPinky2]
155	36	0	0	11.4760704	0.3813568056	-91.68804169	1.0
156	36	0	0	11.56126118	0.6656432748	-93.57569122	1.0
157	36	0	0	11.59772205	0.805539906	-94.49153137	1.0
158	36	0	0	11.60314751	0.839368403	-94.70235443	1.0
[LeftHandPinky3]
155	21.14200211	0	0	3.226109357e-06	2.925280342e-06	-5.739977951e-06	1.0
156	21.14200211	0	0	3.226109357e-06	2.925280342e-06	-5.739977951e-06	1.0
157	21.14200211	0	0	3.226109357e-06	2.925280342e-06	-5.739977951e-06	1.0
158	21.14200211	0	0	3.226109357e-06	2.925280342e-06	-5.739977951e-06	1.0
[LeftHandPinky4]
155	19.75699997	0	0	0	0	0	1.0
156	19.75699997	0	0	0	0	0	1.0
157	19.75699997	0	0	0	0	0	1.0
158	19.75699997	0	0	0	0	0	1.0
[RightShoulder]
155	-45.70000076	109.4620056	-26.28000069	0.1551921666	1.985026479	1.944571614	1.0
156	-45.70000076	109.4620056	-26.28000069	0.1038551629	1.409396768	1.654470801	1.0
157	-45.70000076	109.4620056	-26.28000069	0.0651890561	1.088704348	1.462625384	1.0
158	-45.70000076	109.4620056	-26.28000069	0.05716998875	1.08273232	1.344915032	1.0
[RightArm]
155	-105.9280014	-5.248000145	-22.32099915	-298.6691284	60.90270233	-263.1051331	1.0
156	-105.9280014	-5.248000145	-22.32099915	-298.6645203	60.00403976	-263.4971313	1.0
157	-105.9280014	-5.248000145	-22.32099915	-299.0750732	59.17009735	-264.1724854	1.0
158	-105.9280014	-5.248000145	-22.32099915	-299.3375854	58.51669693	-264.4561768	1.0
[RightForeArm]
155	-278.414978	0	0	2.568692207	107.2787933	3.654616117	1.0
156	-278.414978	0	0	2.402190447	107.6499176	3.499007463	1.0
157	-278.414978	0	0	2.268207788	108.0890274	3.343531609	1.0
158	-278.414978	0	0	2.204316616	108.3545227	3.246172905	1.0
[RightHand]
155	-283.2879944	0	0.0009999999311	22.42078781	15.58456135	4.729458809	1.0
156	-283.2879944	0	0.0009999999311	22.16324043	15.83856487	4.545224667	1.0
157	-283.2879944	0	0.0009999999311	21.8867836	15.72976398	4.35415411	1.0
158	-283.2879944	0	0.0009999999311	21.61932755	15.58597279	4.195195675	1.0
[RightHandPinky1]
155	-80.76699829	-4.885000229	-38.06000137	2.08702898	15.95499516	117.7234573	1.0
156	-80.76699829	-4.885000229	-38.06000137	2.060415268	15.9340086	117.5704193	1.0
157	-80.76699829	-4.885000229	-38.06000137	2.003718853	15.88641548	117.2364273	1.0
158	-80.76699829	-4.885000229	-38.06000137	1.939565539	15.83181381	116.8568192	1.0
[RightHandPinky2]
155	-36	0	0.0009999999311	15.51802349	1.45664525	100.0750275	1.0
156	-36	0	0.0009999999311	15.50832939	1.46642828	99.99685669	1.0
157	-36	0	0.0009999999311	15.48362827	1.506367683	99.73482513	1.0
158	-36	0	0.0009999999311	15.45483971	1.553892732	99.42591858	1.0
[RightHandPinky3]
155	-21.14200211	0	0	-1.590277359e-15	0	-7.951386796e-16	1.0
156	-21.14200211	0	0	-1.590277359e-15	0	-7.951386796e-16	1.0
157	-21.14200211	0	0	-1.590277359e-15	0	-7.951386796e-16	1.0
158	-21.14200211	0	0	-1.590277359e-15	0	-7.951386796e-16	1.0
[RightHandPinky4]
155	-19.75699997	0	0	0	0	0	1.0
156	-19.75699997	0	0	0	0	0	1.0
157	-19.75699997	0	0	0	0	0	1.0
158	-19.75699997	0	0	0	0	0	1.0
[RightHandRing1]
155	-91.03599548	-0.4390000105	-18.65100098	-0.7715660334	11.40744495	115.1420746	1.0
156	-91.03599548	-0.4390000105	-18.65100098	-0.7902262807	11.39355946	115.0077286	1.0
157	-91.03599548	-0.4390000105	-18.65100098	-0.8335852623	11.36092663	114.6985474	1.0
158	-91.03599548	-0.4390000105	-18.65100098	-0.8830783963	11.32331276	114.3451462	1.0
[RightHandRing2]
155	-31.54000092	0	0	9.242136955	3.344235897	94.09631348	1.0
156	-31.54000092	0	0	9.228923798	3.35185051	93.94999695	1.0
157	-31.54000092	0	0	9.198244095	3.370180368	93.61333466	1.0
158	-31.54000092	0	0	9.162999153	3.391021967	93.22842407	1.0
[RightHandRing3]
155	-29.37700081	0	0	5.740008078e-07	-7.531911024e-07	-2.69121324e-06	1.0
156	-29.37700081	0	0	5.740008078e-07	-7.531911024e-07	-2.69121324e-06	1.0
157	-29.37700081	0	0	5.740008078e-07	-7.531911024e-07	-2.69121324e-06	1.0
158	-29.37700081	0	0	5.740008078e-07	-7.531911024e-07	-2.69121324e-06	1.0
[RightHandRing4]
155	-26.47500038	0	0	0	0	0	1.0
156	-26.47500038	0	0	0	0	0	1.0
157	-26.47500038	0	0	0	0	0	1.0
158	-26.47500038	0	0	0	0	0	1.0
[RightHandMiddle1]
155	-95.32500458	0	0	0.9829521775	8.433289528	109.9406357	1.0
156	-95.32500458	0	0	0.9688542485	8.425746918	109.8141098	1.0
157	-95.32500458	0	0	0.9361799955	8.40728569	109.5229492	1.0
158	-95.32500458	0	0	0.8989409208	8.385837555	109.1901245	1.0
[RightHandMiddle2]
155	-36.98199844	0	0	0.6682744622	8.30915451	103.1010361	1.0
156	-36.98199844	0	0	0.6529179811	8.301916122	102.9396591	1.0
157	-36.98199844	0	0	0.6181058288	8.283948898	102.5682755	1.0
158	-36.98199844	0	0	0.5785213709	8.262955666	102.1437302	1.0
[RightHandMiddle3]
155	-29.50900078	0	0	1.856611448e-06	-0.002022909233	1.577868488e-06	1.0
156	-29.50900078	0	0	1.856611448e-06	-0.002022909233	1.577868488e-06	1.0
157	-29.50900078	0	0	1.856611448e-06	-0.002022909233	1.577868488e-06	1.0
158	-29.50900078	0	0	1.856611448e-06	-0.002022909233	1.577868488e-06	1.0
[RightHandMiddle4]
155	-28.3390007	0	0.0009999999311	0	0	0	1.0
156	-28.3390007	0	0.0009999999311	0	0	0	1.0
157	-28.3390007	0	0.0009999999311	0	0	0	1.0
158	-28.3390007	0	0.0009999999311	0	0	0	1.0
[RightHandIndex1]
155	-91.08300018	-5.167999744	22.60099792	4.155742645	2.149746656	115.1578674	1.0
156	-91.08300018	-5.167999744	22.60099792	4.143438816	2.147132397	115.0341187	1.0
157	-91.08300018	-5.167999744	22.60099792	4.114910126	2.140435696	114.7493591	1.0
158	-91.08300018	-5.167999744	22.60099792	4.082370281	2.132474422	114.4238281	1.0
[RightHandIndex2]
155	-36.76399994	0	0	-0.8221822381	8.145666122	103.973381	1.0
156	-36.76399994	0	0	-0.840103507	8.133062363	103.8009644	1.0
157	-36.76399994	0	0	-0.8804854751	8.102822304	103.4042664	1.0
158	-36.76399994	0	0	-0.9262628555	8.067738533	102.9508286	1.0
[RightHandIndex3]
155	-28.83100128	0	0	-3.180554719e-15	0	0	1.0
156	-28.83100128	0	0	-3.180554719e-15	0	0	1.0
157	-28.83100128	0	0	-3.180554719e-15	0	0	1.0
158	-28.83100128	0	0	-3.180554719e-15	0	0	1.0
[RightHandIndex4]
155	-23.92700005	0	0	0	0	0	1.0
156	-23.92700005	0	0	0	0	0	1.0
157	-23.92700005	0	0	0	0	0	1.0
158	-23.92700005	0	0	0	0	0	1.0
[RightHandThumb1]
155	-24.64799881	-15.72700024	26.82600021	8.165030479	13.54243469	5.080834866	1.0
156	-24.64799881	-15.72700024	26.82600021	8.280483246	13.67869854	4.91509819	1.0
157	-24.64799881	-15.72700024	26.82600021	8.391613007	13.82193851	4.72833252	1.0
158	-24.64799881	-15.72700024	26.82600021	8.500882149	13.96641541	4.53694582	1.0
[RightHandThumb2]
155	-32.29800034	-18.64699936	18.64699936	-0.2915682793	-37.7644043	44.1788559	1.0
156	-32.29800034	-18.64699936	18.64699936	-0.3508774042	-37.69376755	44.43346786	1.0
157	-32.29800034	-18.64699936	18.64699936	-0.4108926952	-37.56998444	44.67960739	1.0
158	-32.29800034	-18.64699936	18.64699936	-0.4696120322	-37.43273544	44.92163467	1.0
[RightHandThumb3]
155	-26.52600098	-15.31399918	15.31399918	-3.81245151e-08	-0.00121095567	-0.001221005921	1.0
156	-26.52600098	-15.31399918	15.31399918	-3.81245151e-08	-0.00121095567	-0.001221005921	1.0
157	-26.52600098	-15.31399918	15.31399918	-3.81245151e-08	-0.00121095567	-0.001221005921	1.0
158	-26.52600098	-15.31399918	15.31399918	-3.81245151e-08	-0.00121095567	-0.001221005921	1.0
[RightHandThumb4]
155	-19.54599953	-11.28499985	11.28499985	0	0	0	1.0
156	-19.54599953	-11.28499985	11.28499985	0	0	0	1.0
157	-19.54599953	-11.28499985	11.28499985	0	0	0	1.0
158	-19.54599953	-11.28499985	11.28499985	0	0	0	1.0
[LeftUpLeg]
155	82.07800293	-67.51699829	-15.99599934	-16.26488495	28.98607826	15.38523293	1.0
156	82.07800293	-67.51699829	-15.99599934	-15.16185188	28.84524536	15.01921177	1.0
157	82.07800293	-67.51699829	-15.99599934	-13.99330044	28.19970703	14.0728817	1.0
158	82.07800293	-67.51699829	-15.99599934	-12.98377228	27.30723572	13.01449585	1.0
[LeftLeg]
155	0	-443.7049866	2.845999956	44.52497482	3.410522699	-1.315024853	1.0
156	0	-443.7049866	2.845999956	41.72900772	3.156049013	-1.985073924	1.0
157	0	-443.7049866	2.845999956	38.82938766	3.261737823	-1.870354056	1.0
158	0	-443.7049866	2.845999956	36.3122406	3.784631968	-1.212466002	1.0
[LeftFoot]
155	0	-444.2789917	-29.8219986	-15.13383293	-0.7168625593	-10.15605736	1.0
156	0	-444.2789917	-29.8219986	-13.11823177	-0.5418477654	-9.839859962	1.0
157	0	-444.2789917	-29.8219986	-11.19364357	-0.4140963852	-9.846270561	1.0
158	0	-444.2789917	-29.8219986	-9.563347816	-0.3266523778	-10.13721371	1.0
[LeftToeBase]
155	0	-87.28699493	107.1060028	2.123887062	4.193996119e-06	-1.580637445e-06	1.0
156	0	-87.28699493	107.1060028	2.934794664	-6.558992027e-06	-6.096149718e-06	1.0
157	0	-87.28699493	107.1060028	3.449329138	4.220487426e-06	-4.614549653e-06	1.0
158	0	-87.28699493	107.1060028	3.654620886	7.718956113e-06	-3.322950988e-06	1.0
[RightUpLeg]
155	-82.07800293	-67.51699829	-15.99599934	-8.765636444	-15.70862293	-14.77531624	1.0
156	-82.07800293	-67.51699829	-15.99599934	-8.064563751	-15.65121841	-14.78048897	1.0
157	-82.07800293	-67.51699829	-15.99599934	-7.319366455	-15.55194664	-15.20181084	1.0
158	-82.07800293	-67.51699829	-15.99599934	-6.87968111	-15.41116714	-15.62838936	1.0
[RightLeg]
155	0	-443.7049866	2.861999989	43.77613068	13.93211842	7.573405266	1.0
156	0	-443.7049866	2.861999989	42.53211975	13.36433697	6.423979282	1.0
157	0	-443.7049866	2.861999989	41.20544052	12.93285847	5.447804451	1.0
158	0	-443.7049866	2.861999989	40.21038818	12.73403263	4.701005936	1.0
[RightFoot]
155	0	-444.2770081	-29.83799934	-26.39633179	1.297901273	8.219649315	1.0
156	0	-444.2770081	-29.83799934	-25.63061142	1.245837092	8.258437157	1.0
157	0	-444.2770081	-29.83799934	-24.81527328	1.204018831	8.37087822	1.0
158	0	-444.2770081	-29.83799934	-24.1445446	1.188422561	8.445509911	1.0
[RightToeBase]
155	0	-87.28699493	107.1060028	-6.345911503	5.952136235e-06	2.210953653e-06	1.0
156	0	-87.28699493	107.1060028	-5.561683655	-7.804770576e-06	-3.659846925e-06	1.0
157	0	-87.28699493	107.1060028	-4.787094593	7.232139978e-06	-2.639314062e-06	1.0
158	0	-87.28699493	107.1060028	-4.416015148	9.401395801e-06	-1.030839599e-06	1.0
[EndOfFile]
